<svg xmlns="http://www.w3.org/2000/svg" id="Layer_2" viewBox="0 0 386.58 84.83"><defs><style>.cls-2{fill:#254336}</style></defs><g id="Title_Page"><g id="Final_ID"><path d="M83.82 63.9V37.12c0-2.01-.2-3.91-.6-5.72-.4-1.8-1.07-3.41-2.02-4.81-.95-1.4-2.28-2.51-4-3.31-1.72-.8-3.9-1.2-6.53-1.2-2.87 0-5.29.64-7.26 1.93-1.98 1.29-3.65 3.05-5.03 5.29-1.38 2.24-2.55 4.73-3.53 7.48l-.69-.69c0-2.18-.27-4.14-.82-5.89-.55-1.75-1.35-3.22-2.41-4.43-1.06-1.2-2.42-2.12-4.08-2.75-1.66-.63-3.61-.95-5.85-.95-2.87 0-5.29.64-7.26 1.93-1.98 1.29-3.65 3.05-5.03 5.29-1.38 2.24-2.55 4.73-3.53 7.48l-.69-.69v-9.11a3.14 3.14 0 0 0-3.58-3.11L0 26.8v.95h1.15A3.15 3.15 0 0 1 4.3 30.9v30.97c0 1.39-.91 2.61-2.24 3.01L0 65.5v.86h27.94v-.86l-1.4-.52a3.139 3.139 0 0 1-2.04-2.95V41.85c0-.3.04-.58.12-.86.15-.51.38-1.27.7-2.27.43-1.35.96-2.81 1.59-4.38.63-1.58 1.33-2.94 2.11-4.08.77-1.15 1.56-1.72 2.36-1.72.69 0 1.29.49 1.81 1.46.52.98.77 2.35.77 4.13v27.91c0 1.31-.81 2.48-2.04 2.94l-1.4.52v.86H57.6v-.86l-1.4-.52a3.139 3.139 0 0 1-2.04-2.95V41.48s0-.06.01-.1c.12-.47.39-1.36.81-2.66.43-1.35.96-2.81 1.59-4.38.63-1.58 1.33-2.94 2.11-4.08.77-1.15 1.56-1.72 2.36-1.72.69 0 1.29.49 1.8 1.46.52.98.77 2.35.77 4.13v29.81a.4.4 0 0 1-.26.38l-3.18 1.19v.86h27.94v-.86l-4.01-1.2a.408.408 0 0 1-.29-.39ZM140.82 65.14c-.4 0-.67-.16-.82-.47-.14-.31-.22-.67-.22-1.07V38.41c0-2.75-.43-5.14-1.29-7.18-.86-2.03-2.21-3.74-4.04-5.12-1.84-1.38-4.16-2.39-6.96-3.05-2.81-.66-6.16-.99-10.06-.99-3.38 0-6.61.37-9.67 1.12-3.07.75-5.8 1.73-8.21 2.97-2.41 1.23-4.3 2.62-5.68 4.17-1.37 1.55-2.06 3.12-2.06 4.73 0 2.46 1.08 4.36 3.22 5.67 2.15 1.32 4.89 1.98 8.21 1.98s6.18-.66 8.38-1.98c2.21-1.32 3.31-3.21 3.31-5.67 0-2.81-2.09-4.9-6.28-6.28-2.12-.69-3.58-1.23-4.38-1.63-.8-.4-1.2-.77-1.2-1.12 0-.23.3-.52.9-.86.6-.34 1.43-.64 2.49-.9 1.06-.26 2.28-.39 3.65-.39 2.75 0 4.8.5 6.15 1.5 1.35 1 2.24 2.84 2.66 5.5.42 2.59.63 6.28.64 11.06 0 .22-.19.41-.41.41-9.15.04-16.3 1.39-21.47 4.04-5.24 2.69-7.87 6.45-7.87 11.26 0 1.95.5 3.67 1.51 5.16 1 1.49 2.36 2.67 4.08 3.53 1.72.86 3.7 1.29 5.93 1.29 1.78 0 3.49-.34 5.16-1.03 1.66-.69 3.25-1.68 4.77-2.97 1.52-1.29 2.92-2.86 4.21-4.73 1.29-1.86 2.45-3.97 3.48-6.32l.6.52v1.2c0 4.81 1.26 8.24 3.78 10.27 2.52 2.03 5.85 3.05 9.97 3.05 1.32 0 2.66-.13 4.04-.39s2.66-.62 3.87-1.07c1.2-.46 2.21-.97 3.01-1.55v-.86c-.8.46-1.49.8-2.06 1.03-.57.23-1.03.34-1.38.34Zm-21.23-15.89s0 .1-.02.14c-.74 2.09-1.5 3.86-2.3 5.3-.8 1.46-1.59 2.64-2.36 3.52-.77.89-1.5 1.53-2.19 1.93-.69.4-1.32.6-1.89.6s-1.05-.17-1.42-.52c-.37-.34-.66-.86-.86-1.55-.2-.69-.3-1.55-.3-2.58 0-1.72.37-3.58 1.12-5.59.74-2.01 1.95-3.73 3.61-5.16 1.57-1.36 3.64-2.07 6.19-2.14.23 0 .43.19.43.42v5.61ZM276.67 39.48c-.37-2.2-1.07-4.32-2.07-6.36-1.61-3.24-4.08-5.89-7.44-7.95-3.35-2.06-7.7-3.1-13.03-3.1-3.67 0-7.05.53-10.15 1.59-3.09 1.06-5.77 2.61-8.04 4.64-2.26 2.03-4.03 4.51-5.29 7.44-1.26 2.92-1.89 6.25-1.89 9.97 0 2.58.5 5.17 1.5 7.78 1 2.61 2.49 4.97 4.47 7.09 1.98 2.12 4.46 3.83 7.44 5.12 2.98 1.29 6.45 1.93 10.4 1.93 1.6 0 3.4-.14 5.37-.43 1.98-.29 4.03-.89 6.15-1.81s4.15-2.31 6.1-4.17c1.95-1.86 3.7-4.4 5.25-7.61l-1.2-.77c-.57 1.38-1.35 2.61-2.32 3.7-.97 1.09-2.05 2.04-3.22 2.84-1.18.8-2.38 1.41-3.61 1.81-1.23.4-2.36.6-3.4.6-2.24 0-4.14-.59-5.72-1.76s-2.85-2.72-3.82-4.64c-.98-1.92-1.69-4-2.15-6.23-.4-1.94-.61-3.82-.66-5.67h-.37v-.86l.34-.06v-2.02c0-.31 0-.61.01-.91 0-.26 0-.52.01-.78 0-.3.01-.59.02-.89 0-.23.01-.47.02-.7 0-.29.02-.57.03-.85 0-.21.01-.43.02-.64.01-.27.02-.53.04-.79 0-.2.02-.41.03-.61.01-.25.03-.49.05-.74l.03-.55.06-.78.03-.41c.03-.38.07-.75.11-1.09.31-2.84.82-4.86 1.5-6.06.69-1.2 1.6-1.81 2.75-1.81 1.37 0 2.36.69 2.97 2.06.6 1.38.97 3.4 1.12 6.06.11 1.97.17 4.28.2 6.93a3.457 3.457 0 0 1-2.82 3.43l-5.71 1.05-.48.09v.06c0 .28.01.57.02.86h23.92c2.12 0 3.77-1.91 3.41-4ZM190.69 23.1c-.86-.36-1.72-.62-2.58-.79-.8-.16-1.6-.24-2.41-.24-2.29 0-4.31.44-6.06 1.33-1.75.89-3.25 2.22-4.51 4-.75.92-1.48 2.12-2.19 3.61-.72 1.49-1.39 3.12-2.02 4.9l-.69-.69v-9.61c0-1.87-1.65-3.31-3.51-3.05l-21 2.95v.95h1.22c1.7 0 3.08 1.38 3.08 3.08v32.37c0 1.36-.89 2.56-2.19 2.95l-2.1.63v.86h28.8v-.86l-2.1-.63a3.078 3.078 0 0 1-2.19-2.95V41.4c.04-.27.07-.55.11-.82.36-1.34.73-2.59 1.09-3.76.4-1.29.77-2.36 1.12-3.22.97-2.24 1.72-3.78 2.24-4.64.52-.86.95-1.29 1.29-1.29.23 0 .34.2.34.6 0 .34-.07.76-.22 1.25-.14.49-.29 1-.43 1.55s-.22 1.16-.22 1.85c0 1.61.43 3.04 1.29 4.3.86 1.26 2.05 2.25 3.57 2.97 1.52.72 3.25 1.07 5.2 1.07 2.18 0 4.08-.4 5.72-1.2 1.63-.8 2.91-1.92 3.83-3.35.84-1.31 1.27-2.79 1.35-4.43 0-.16.03-.31.03-.47 0-2.24-.56-4.07-1.68-5.5a10.18 10.18 0 0 0-4.17-3.18ZM330.22 23.36h-19.86v.86c1.38 0 2.49.47 3.35 1.42.86.95 1.55 2.16 2.06 3.65.52 1.49.87 3.05 1.07 4.69.2 1.63.3 3.14.3 4.51 0 2.24-.13 4.36-.39 6.36-.26 2.01-.68 3.78-1.25 5.33l-.26.69h-1.37l-9.22-21.62c-.91-2.13.41-4.55 2.69-4.95v-.95h-30.35v.95l2.16.41c1.18.22 2.16 1.02 2.63 2.12l15.86 37.32a3.578 3.578 0 0 0 3.3 2.19h7.18c1.49 0 2.83-.92 3.36-2.32l14.05-37.05a3.585 3.585 0 0 1 2.73-2.26l2.14-.38-.19-.03v-.95ZM224.3 65.11c-1.4-.28-2.4-1.5-2.4-2.93V25.51c0-1.81-1.6-3.21-3.4-2.96l-6.93.97-.54.08-13.64 1.91v.95h1.31c1.65 0 2.99 1.34 2.99 2.99v32.74c0 1.42-1.01 2.65-2.4 2.93l-1.9.38v.86h28.8v-.86l-1.9-.38Z" class="cls-2"/><ellipse cx="211.79" cy="7.67" class="cls-2" rx="9.52" ry="7.67"/><path d="M367.12 50.87h-.01l-9.01-21.99a3.36 3.36 0 0 1 2.48-4.58v-.95h-29.49v.86l-.67.12 2.24.39c1.27.22 2.34 1.07 2.83 2.26L351 64.03c.59 1.4 1.96 2.31 3.48 2.31h2.59c2.63 0 4.47 2.65 3.53 5.1-.05.14-.1.27-.16.4-.66 1.66-1.39 3.15-2.19 4.47-1.09 1.95-2.22 3.44-3.4 4.47-1.18 1.03-2.25 1.55-3.22 1.55-.34 0-.52-.12-.52-.34 0-.29.11-.67.34-1.16.23-.49.46-1.1.69-1.85.17-.57.31-1.22.43-1.93.11-.72.17-1.5.17-2.36 0-1.43-.39-2.61-1.16-3.52-.77-.92-1.76-1.61-2.97-2.06-1.2-.46-2.49-.69-3.87-.69-1.15 0-2.29.16-3.44.47-1.15.31-2.19.79-3.14 1.42-.95.63-1.69 1.4-2.24 2.32-.54.92-.82 2.01-.82 3.27 0 1.6.39 3.08 1.16 4.43.77 1.35 1.98 2.44 3.61 3.27 1.63.83 3.77 1.25 6.41 1.25 3.15 0 5.72-.67 7.69-2.02 1.98-1.35 3.62-3.08 4.94-5.2.52-.8 1.17-2.14 1.98-4 .8-1.86 1.78-4.29 2.92-7.26l3.38-8.92c.69-1.81.64-4.76-.1-6.56Z" class="cls-2"/><path d="m376.73 13.93-.22-.69-.22.7c-.91 2.44-2.39 4.59-4.89 6.93a9.077 9.077 0 0 1-3.86 2.13c-.41.11-.69.31-.32.46 4.27 1.74 7.86 5.6 9.3 10.01 1.56-4.76 5.31-8.51 10.07-10.07-4.56-1.49-8.19-5-9.85-9.47Z" style="fill:#DE8F5F"/></g></g></svg>