<svg xmlns="http://www.w3.org/2000/svg" id="Layer_2" viewBox="0 0 386.6 84.8"><defs><style>.cls-2{fill:#254336}</style></defs><g id="Title_Page"><g id="Final_ID"><path d="M83.8 63.9V37.1c0-2-.2-3.9-.6-5.7-.4-1.8-1-3.4-2-4.8a9.6 9.6 0 0 0-4-3.3c-1.7-.8-3.9-1.2-6.5-1.2a13 13 0 0 0-7.3 2c-2 1.2-3.6 3-5 5.2a39.4 39.4 0 0 0-3.5 7.5l-.7-.7c0-2.2-.3-4.1-.9-5.9-.5-1.7-1.3-3.2-2.4-4.4-1-1.2-2.4-2.1-4-2.8-1.7-.6-3.7-1-5.9-1a13 13 0 0 0-7.3 2c-2 1.3-3.6 3-5 5.3a39.4 39.4 0 0 0-3.5 7.5l-.7-.7V27a3.1 3.1 0 0 0-3.6-3.1L0 26.8v1h1.1a3.1 3.1 0 0 1 3.2 3.1v31c0 1.4-1 2.6-2.2 3l-2.1.6v.9h28v-.9l-1.5-.5a3.1 3.1 0 0 1-2-3V42l.1-1a101.4 101.4 0 0 1 2.3-6.6 21 21 0 0 1 2.1-4c.8-1.2 1.6-1.8 2.4-1.8.7 0 1.3.5 1.8 1.5a9 9 0 0 1 .8 4.1v28c0 1.3-.8 2.4-2 2.9l-1.5.5v.9h27.1v-.9l-1.4-.5a3.1 3.1 0 0 1-2-3V41.4a53.8 53.8 0 0 1 4.5-11.1c.8-1.2 1.5-1.8 2.3-1.8.7 0 1.3.5 1.8 1.5a9 9 0 0 1 .8 4.1V64a.4.4 0 0 1-.2.4l-3.2 1.2v.9h28v-.9L84 64.3a.4.4 0 0 1-.3-.4Zm57 1.2c-.4 0-.7-.1-.8-.4l-.2-1.1V38.4c0-2.7-.5-5.1-1.3-7.2-.9-2-2.2-3.7-4-5a18.6 18.6 0 0 0-7-3.1 44.5 44.5 0 0 0-28 3 19.2 19.2 0 0 0-5.6 4.2 7.1 7.1 0 0 0-2 4.8c0 2.4 1 4.3 3.1 5.6 2.2 1.4 5 2 8.2 2s6.2-.7 8.4-2a6.3 6.3 0 0 0 3.3-5.6c0-2.8-2-5-6.2-6.3-2.2-.7-3.6-1.2-4.4-1.6-.8-.4-1.2-.8-1.2-1.2 0-.2.3-.5.9-.8a10 10 0 0 1 2.5-1c1-.2 2.2-.3 3.6-.3 2.8 0 4.8.5 6.2 1.5 1.3 1 2.2 2.8 2.6 5.5.4 2.6.7 6.3.7 11 0 .3-.2.5-.4.5-9.2 0-16.3 1.3-21.5 4-5.3 2.7-7.9 6.4-7.9 11.3a9 9 0 0 0 1.5 5.1c1 1.5 2.4 2.7 4.1 3.5 1.7.9 3.7 1.3 6 1.3 1.7 0 3.4-.3 5-1 1.8-.7 3.3-1.7 4.9-3a24 24 0 0 0 4.2-4.7c1.3-1.9 2.4-4 3.4-6.3l.6.5v1.2c0 4.8 1.3 8.2 3.8 10.3 2.6 2 5.9 3 10 3a21.7 21.7 0 0 0 11-3v-.8l-2.1 1-1.4.3Zm-21.2-15.8a35.3 35.3 0 0 1-4.7 9 9 9 0 0 1-2.2 1.8c-.7.4-1.3.6-1.9.6s-1-.1-1.4-.5c-.4-.3-.7-.8-.9-1.5-.2-.7-.3-1.6-.3-2.6 0-1.7.4-3.6 1.2-5.6.7-2 2-3.7 3.6-5.2 1.6-1.3 3.6-2 6.2-2.1.2 0 .4.2.4.4v5.6Zm157-9.8a19.3 19.3 0 0 0-9.5-14.3 31.2 31.2 0 0 0-23.2-1.5 21 21 0 0 0-13.3 12 25 25 0 0 0-.3 17.8 21.7 21.7 0 0 0 11.9 12.2c3 1.3 6.4 2 10.4 2 1.6 0 3.4-.2 5.3-.5 2-.3 4-.9 6.2-1.8s4.1-2.3 6-4.2a26 26 0 0 0 5.3-7.6l-1.2-.8a13 13 0 0 1-2.3 3.7 17.6 17.6 0 0 1-6.8 4.7 11 11 0 0 1-3.4.6c-2.2 0-4.1-.6-5.7-1.8s-2.9-2.7-3.8-4.6c-1-2-1.7-4-2.2-6.2-.4-2-.6-3.9-.7-5.7h-.3v-.9h.3v-5.3l.1-.9a13.7 13.7 0 0 1 0-1.4v-.6l.1-.8v-.5l.1-.8V32a28.6 28.6 0 0 1 1.7-7.2c.7-1.2 1.6-1.8 2.7-1.8 1.4 0 2.4.7 3 2.1.6 1.4 1 3.4 1.1 6l.2 7a3.5 3.5 0 0 1-2.8 3.4l-5.7 1-.5.2v.9h24c2 0 3.7-2 3.4-4Zm-86-16.4a13.4 13.4 0 0 0-11 .3A18 18 0 0 0 173 31c-.7 1.5-1.4 3.1-2 5l-.7-.8v-9.6a3 3 0 0 0-3.5-3l-21 3v.9h1.2a3 3 0 0 1 3.1 3V62a3 3 0 0 1-2.2 3l-2 .6v.8h28.7v-.8l-2-.6a3 3 0 0 1-2.3-3V41.4l.2-.8a107.8 107.8 0 0 1 2.2-7c1-2.2 1.7-3.8 2.2-4.6.5-.9 1-1.3 1.3-1.3.2 0 .3.2.3.6 0 .3 0 .7-.2 1.2l-.4 1.6-.2 1.8c0 1.6.4 3 1.3 4.3.8 1.3 2 2.3 3.5 3 1.5.7 3.3 1 5.2 1 2.2 0 4.1-.3 5.7-1.1a8.8 8.8 0 0 0 5.2-7.8v-.5c0-2.2-.5-4-1.6-5.5a10.2 10.2 0 0 0-4.2-3.2Zm139.6.3h-19.8v.8c1.3 0 2.5.5 3.3 1.4.9 1 1.6 2.2 2 3.7a37.3 37.3 0 0 1 1 15.6c-.2 2-.6 3.7-1.2 5.3l-.3.7H314l-9.2-21.7c-1-2 .4-4.5 2.6-4.9v-1H277v1l2.2.4c1.1.2 2.1 1 2.6 2.1l15.8 37.3a3.6 3.6 0 0 0 3.3 2.2h7.2c1.5 0 2.9-.9 3.4-2.3l14-37a3.6 3.6 0 0 1 2.8-2.3l2.1-.4h-.2v-1ZM224.3 65a3 3 0 0 1-2.4-3V25.6a3 3 0 0 0-3.4-3l-7 1-.5.1-13.6 2v.9h1.3a3 3 0 0 1 3 3v32.7a3 3 0 0 1-2.4 3l-2 .3v.9h28.9v-.9l-2-.4Z" class="cls-2"/><ellipse cx="211.8" cy="7.7" class="cls-2" rx="9.5" ry="7.7"/><path d="m367.1 50.9-9-22a3.4 3.4 0 0 1 2.5-4.6v-1H331v1h-.7l2.3.4c1.2.2 2.3 1 2.8 2.3L351 64c.6 1.4 2 2.3 3.5 2.3h2.6a3.8 3.8 0 0 1 3.3 5.5 30 30 0 0 1-5.6 9c-1.1 1-2.2 1.5-3.2 1.5-.3 0-.5 0-.5-.3l.3-1.2a14.2 14.2 0 0 0 1.3-6.1c0-1.4-.4-2.6-1.1-3.5a7 7 0 0 0-3-2c-1.2-.6-2.5-.8-3.9-.8-1.1 0-2.3.2-3.4.5-1.2.3-2.2.8-3.1 1.4-1 .6-1.7 1.4-2.3 2.3-.5 1-.8 2-.8 3.3a8.4 8.4 0 0 0 4.8 7.7c1.6.8 3.7 1.2 6.4 1.2 3.1 0 5.7-.6 7.7-2 2-1.3 3.6-3 5-5.2l1.9-4 3-7.2 3.3-9c.7-1.8.6-4.7-.1-6.5Z" class="cls-2"/><path d="m376.7 14-.2-.8-.2.7c-1 2.5-2.4 4.6-4.9 7a9 9 0 0 1-3.9 2.1c-.4.1-.7.3-.3.5 4.3 1.7 7.9 5.6 9.3 10 1.6-4.8 5.3-8.5 10-10.1-4.5-1.5-8.1-5-9.8-9.5Z" style="fill:#de8f5f"/></g></g></svg>